<svg width="340" height="479" viewBox="0 0 340 479" fill="none" xmlns="http://www.w3.org/2000/svg">
<path d="M303.114 404.27C292.374 416.53 229.184 479.07 228.914 478.85C208.084 457.04 192.644 427.56 201.404 396.94C214.614 350.77 261.784 326.46 291.204 291.85C296.864 285.19 307.604 267.04 303.864 257.46C303.924 257.46 304.154 257.69 304.504 258.05C326.454 280.46 337.214 312.24 333.484 343.41C330.844 366.67 318.514 386.78 303.364 403.97L303.104 404.27H303.114ZM156.604 0.0200195C178.394 67.11 131.914 152.22 83.6338 196.18C46.0738 230.38 4.89382 264.76 0.423825 319.05C-4.30618 376.49 31.3138 429.72 69.3538 469.31C71.1138 471.13 77.5538 478.88 77.5538 478.88C77.5538 478.88 77.4538 471.98 77.9338 468.36C90.2638 375.67 185.234 330.59 229.794 255.69C284.144 164.35 250.184 50.85 156.734 0C156.734 0 156.604 0.0100195 156.604 0.0200195Z" fill="url(#flame_gradient)"></path>
<defs>
<linearGradient id="flame_gradient" x1="188.134" y1="4.14" x2="157.414" y2="480.3" gradientUnits="userSpaceOnUse">
<stop stop-color="#FFEF8F"></stop>
<stop offset="0.27" stop-color="#FFC885"></stop>
<stop offset="0.85" stop-color="#FE5B04"></stop>
</linearGradient>
</defs>
</svg>