<svg width="1565" height="479" viewBox="0 0 1565 479" fill="none" xmlns="http://www.w3.org/2000/svg">
<path d="M424.934 197.24C424.934 232.7 446.004 246.63 489.844 272.33C513.524 285.71 529.194 294.57 529.194 311.97C529.194 323.76 521.524 329.83 510.524 332.15C475.214 339.59 446.534 309.7 419.914 289.47L389.934 363.9C421.254 376.59 455.504 387.8 489.244 387.8C555.084 387.8 592.844 359.01 592.844 308.82C592.844 265.67 565.004 247.8 519.584 222.22C499.724 211.48 487.534 204.17 487.534 189.9C487.534 142.27 574.124 173.07 593.304 192.09L612.784 129.97C588.744 122.64 563.934 117.31 538.804 116.62C487.324 115.2 424.924 136.46 424.924 197.24H424.934Z" fill="#0E2336"></path>
<path d="M1277.76 139.14C1265.34 124.24 1245.95 116.68 1220.11 116.68C1191.77 116.68 1163.72 128.54 1136.52 157.06L1134.09 159.36L1132.9 156.23C1126.03 138.17 1111.6 123.93 1092.92 119.57C1061.27 112.19 1029.15 117.68 998.474 126.72C986.144 130.35 976.204 134.21 963.434 130.6C952.044 127.39 942.604 122.99 930.364 123.5L886.974 381.77H953.904L981.554 217.93C986.294 189.87 1010.83 169.84 1039.29 170C1039.48 170 1039.67 170 1039.87 170C1050.48 170 1058.43 173.1 1063.51 179.23C1070.6 187.78 1072.17 201.79 1068.34 222.04L1041.98 381.76H1108.93C1108.93 381.76 1135.05 224.75 1135.05 224.71C1138.39 204.64 1150.99 186.53 1169.04 176.98C1181.65 170.31 1199.13 166.65 1212.09 174.47C1228.33 184.26 1226.4 205.93 1223.35 222.04L1196.47 381.76H1263.94L1290.43 223.85C1297.27 186.56 1292.88 157.26 1277.76 139.11V139.14Z" fill="#0E2336"></path>
<path d="M1312.47 283.14C1310.31 316.39 1319.57 352.37 1347.97 372.98C1381.96 397.66 1430.57 388.38 1461.33 364.66L1464.93 361.89L1461.12 381.79H1521.76L1564.62 123.52C1545.46 124.25 1531.1 127.85 1515.73 125.91C1500.37 123.97 1484.01 116.5 1465.25 116.69C1380.88 117.55 1318.76 186.11 1312.46 283.14H1312.47ZM1487.44 172.73L1500.46 176.15L1481.5 275.24C1476.66 300.53 1459.43 322.19 1435.22 330.97C1429.65 332.99 1423.9 334.23 1417.95 334.23C1393.13 334.23 1379.46 314.96 1379.46 279.98C1379.46 245.1 1391.81 206.24 1420.37 184.29C1441.56 168 1462.26 166.1 1487.43 172.73H1487.44Z" fill="#0E2336"></path>
<path d="M405.404 478.87C402.274 478.87 399.384 478.33 396.724 477.24C394.074 476.15 391.654 474.62 389.474 472.63L394.764 467.04C396.234 468.39 397.834 469.51 399.574 470.4C401.314 471.29 403.454 471.74 405.994 471.74C408.534 471.74 410.534 471.26 411.994 470.31C413.464 469.36 414.194 468.05 414.194 466.39C414.194 465.56 413.984 464.87 413.574 464.31C413.164 463.75 412.604 463.31 411.914 462.97C411.224 462.63 410.434 462.34 409.564 462.08C408.694 461.82 407.724 461.57 406.654 461.34C405.304 460.98 403.894 460.59 402.404 460.15C400.914 459.71 399.564 459.1 398.334 458.31C397.104 457.52 396.104 456.45 395.334 455.1C394.564 453.75 394.174 452.03 394.174 449.93C394.174 447.43 394.874 445.26 396.284 443.39C397.694 441.53 399.644 440.08 402.134 439.05C404.634 438.02 407.544 437.51 410.874 437.51C416.774 437.51 421.764 439.35 425.844 443.04L420.554 448.63C419.164 447.52 417.664 446.58 416.034 445.81C414.414 445.04 412.484 444.65 410.274 444.65C407.814 444.65 405.894 445.1 404.514 445.99C403.124 446.88 402.434 448.1 402.434 449.64C402.434 450.43 402.634 451.09 403.024 451.6C403.424 452.11 403.954 452.53 404.624 452.85C405.294 453.17 406.074 453.44 406.944 453.68C407.814 453.92 408.744 454.14 409.734 454.33C411.124 454.69 412.564 455.08 414.074 455.52C415.584 455.96 416.964 456.59 418.234 457.42C419.504 458.25 420.534 459.36 421.324 460.75C422.114 462.14 422.514 463.92 422.514 466.1C422.514 468.68 421.784 470.91 420.314 472.81C418.844 474.71 416.834 476.2 414.284 477.27C411.724 478.34 408.764 478.87 405.404 478.87Z" fill="#0E2336"></path>
<path d="M436.124 478.16L441.594 445.36H429.174L430.364 438.23H463.524L462.334 445.36H449.854L444.384 478.16H436.124Z" fill="#0E2336"></path>
<path d="M462.394 478.16L469.054 438.23H485.634C489.594 438.23 492.664 439.16 494.844 441.02C497.024 442.88 498.114 445.54 498.114 448.98C498.114 451.99 497.474 454.6 496.184 456.79C494.894 458.99 493.084 460.7 490.744 461.93C488.404 463.16 485.674 463.77 482.544 463.77H469.234L470.364 456.88H482.484C484.744 456.88 486.523 456.28 487.833 455.07C489.143 453.86 489.794 452.19 489.794 450.05C489.794 448.51 489.303 447.31 488.333 446.45C487.363 445.6 486.004 445.17 484.264 445.17H476.004L470.474 478.15H462.394V478.16ZM485.684 478.16L477.904 463.3L485.514 461.7L494.544 478.16H485.694H485.684Z" fill="#0E2336"></path>
<path d="M497.624 478.16L520.684 438.23H529.004L538.814 478.16H530.434L523.304 447.2L506.544 478.16H497.634H497.624ZM510.344 469.18V462.47H530.844V469.18H510.344Z" fill="#0E2336"></path>
<path d="M546.834 478.16L552.304 445.36H539.884L541.074 438.23H574.234L573.044 445.36H560.564L555.094 478.16H546.834Z" fill="#0E2336"></path>
<path d="M573.094 478.16L579.754 438.23H607.684L606.554 445.18H586.944L585.344 454.57H599.244L598.114 461.28H584.214L582.554 471.2H602.874L601.744 478.15H573.104L573.094 478.16Z" fill="#0E2336"></path>
<path d="M625.743 478.87C622.133 478.87 619.013 478.17 616.383 476.76C613.743 475.35 611.733 473.36 610.353 470.79C608.963 468.22 608.273 465.17 608.273 461.64C608.273 456.73 609.193 452.47 611.033 448.86C612.873 445.26 615.493 442.46 618.873 440.48C622.263 438.5 626.273 437.51 630.903 437.51C638.863 437.51 644.513 440.78 647.843 447.31L640.173 450.46C639.143 448.72 637.883 447.31 636.403 446.24C634.913 445.17 632.943 444.64 630.493 444.64C627.683 444.64 625.223 445.31 623.123 446.66C621.023 448.01 619.403 449.9 618.253 452.33C617.103 454.77 616.533 457.65 616.533 460.98C616.533 463.16 616.933 465.05 617.723 466.65C618.513 468.25 619.643 469.5 621.113 470.39C622.583 471.28 624.363 471.73 626.463 471.73C628.683 471.73 630.653 471.27 632.373 470.33C634.093 469.4 635.493 468.07 636.563 466.35C637.633 464.63 638.363 462.5 638.763 459.96L641.793 462.93H627.293L628.363 456.27H647.613C647.573 456.67 647.513 457.11 647.433 457.61C647.353 458.11 647.293 458.59 647.253 459.07C646.693 463.27 645.483 466.85 643.603 469.8C641.723 472.75 639.253 475 636.203 476.55C633.153 478.09 629.663 478.87 625.743 478.87Z" fill="#0E2336"></path>
<path d="M650.403 478.16L657.063 438.23H665.383L658.723 478.16H650.403Z" fill="#0E2336"></path>
<path d="M685.944 478.87C682.224 478.87 679.034 478.19 676.374 476.82C673.724 475.45 671.684 473.48 670.284 470.91C668.874 468.33 668.174 465.25 668.174 461.64C668.174 456.73 669.094 452.47 670.934 448.86C672.774 445.26 675.404 442.46 678.804 440.48C682.214 438.5 686.254 437.51 690.924 437.51C698.844 437.51 704.474 440.78 707.804 447.31L700.134 450.64C699.144 448.98 697.914 447.6 696.454 446.51C694.984 445.42 692.984 444.88 690.454 444.88C687.684 444.88 685.264 445.55 683.204 446.9C681.144 448.25 679.554 450.13 678.424 452.55C677.294 454.97 676.734 457.78 676.734 460.99C676.734 464.2 677.604 466.84 679.344 468.69C681.084 470.53 683.584 471.45 686.834 471.45C689.364 471.45 691.464 470.96 693.134 469.99C694.794 469.02 696.284 467.76 697.594 466.22L704.014 470.14C699.934 475.96 693.914 478.87 685.954 478.87H685.944Z" fill="#0E2336"></path>
<path d="M717.733 478.16L740.793 438.23H749.113L758.923 478.16H750.543L743.413 447.2L726.653 478.16H717.743H717.733ZM730.453 469.18V462.47H750.953V469.18H730.453Z" fill="#0E2336"></path>
<path d="M777.753 478.87C774.623 478.87 771.733 478.33 769.073 477.24C766.423 476.15 764.003 474.62 761.823 472.63L767.113 467.04C768.583 468.39 770.183 469.51 771.923 470.4C773.663 471.29 775.803 471.74 778.343 471.74C780.883 471.74 782.883 471.26 784.343 470.31C785.813 469.36 786.543 468.05 786.543 466.39C786.543 465.56 786.333 464.87 785.923 464.31C785.513 463.75 784.953 463.31 784.263 462.97C783.573 462.63 782.783 462.34 781.913 462.08C781.043 461.82 780.073 461.57 779.003 461.34C777.653 460.98 776.243 460.59 774.753 460.15C773.263 459.71 771.913 459.1 770.683 458.31C769.453 457.52 768.453 456.45 767.683 455.1C766.913 453.75 766.523 452.03 766.523 449.93C766.523 447.43 767.223 445.26 768.633 443.39C770.043 441.53 771.993 440.08 774.483 439.05C776.983 438.02 779.893 437.51 783.223 437.51C789.123 437.51 794.113 439.35 798.193 443.04L792.903 448.63C791.513 447.52 790.013 446.58 788.383 445.81C786.763 445.04 784.833 444.65 782.623 444.65C780.163 444.65 778.243 445.1 776.863 445.99C775.473 446.88 774.783 448.1 774.783 449.64C774.783 450.43 774.983 451.09 775.373 451.6C775.773 452.11 776.303 452.53 776.973 452.85C777.643 453.17 778.423 453.44 779.293 453.68C780.163 453.92 781.093 454.14 782.083 454.33C783.473 454.69 784.913 455.08 786.423 455.52C787.933 455.96 789.313 456.59 790.583 457.42C791.853 458.25 792.883 459.36 793.673 460.75C794.463 462.14 794.863 463.92 794.863 466.1C794.863 468.68 794.133 470.91 792.663 472.81C791.193 474.71 789.183 476.2 786.633 477.27C784.073 478.34 781.113 478.87 777.753 478.87Z" fill="#0E2336"></path>
<path d="M798.903 478.16L805.563 438.23H813.883L807.223 478.16H798.903Z" fill="#0E2336"></path>
<path d="M812.094 478.16L835.154 438.23H843.474L853.284 478.16H844.904L837.774 447.2L821.014 478.16H812.104H812.094ZM824.814 469.18V462.47H845.314V469.18H824.814Z" fill="#0E2336"></path>
<path d="M871.284 478.16L877.944 438.23H884.894L894.874 457.13L911.034 438.23H918.874L912.214 478.16H904.374L909.484 447.14H912.334L896.414 465.74H891.304L881.324 446.61H884.474L879.124 478.16H871.284Z" fill="#0E2336"></path>
<path d="M917.164 478.16L940.224 438.23H948.544L958.354 478.16H949.974L942.844 447.2L926.084 478.16H917.174H917.164ZM929.874 469.18V462.47H950.374V469.18H929.874Z" fill="#0E2336"></path>
<path d="M963.214 478.16L969.874 438.23H986.454C990.414 438.23 993.484 439.16 995.664 441.02C997.844 442.88 998.934 445.54 998.934 448.98C998.934 451.99 998.294 454.6 997.004 456.79C995.714 458.99 993.904 460.7 991.564 461.93C989.224 463.16 986.494 463.77 983.364 463.77H970.054L971.184 456.88H983.304C985.564 456.88 987.344 456.28 988.654 455.07C989.964 453.86 990.614 452.19 990.614 450.05C990.614 448.51 990.124 447.31 989.154 446.45C988.184 445.6 986.824 445.17 985.084 445.17H976.824L971.294 478.15H963.214V478.16ZM986.504 478.16L978.724 463.3L986.334 461.7L995.364 478.16H986.514H986.504Z" fill="#0E2336"></path>
<path d="M1000.94 478.16L1007.6 438.23H1015.68L1009.02 478.16H1000.94ZM1007.06 461.28L1008.25 454.03H1022.1L1020.91 461.28H1007.06ZM1026.67 478.16L1015.56 457.3L1031.9 438.22H1041.82L1024.71 458.19L1035.88 478.16H1026.67Z" fill="#0E2336"></path>
<path d="M1040.76 478.16L1047.42 438.23H1075.35L1074.22 445.18H1054.61L1053.01 454.57H1066.91L1065.78 461.28H1051.87L1050.21 471.2H1070.53L1069.4 478.15H1040.76V478.16Z" fill="#0E2336"></path>
<path d="M1085.44 478.16L1090.91 445.36H1078.49L1079.68 438.23H1112.84L1111.65 445.36H1099.17L1093.7 478.16H1085.44Z" fill="#0E2336"></path>
<path d="M1111.71 478.16L1118.37 438.23H1126.69L1120.03 478.16H1111.71Z" fill="#0E2336"></path>
<path d="M1128.47 478.16L1135.13 438.23H1142.08L1157.89 465.68L1162.53 438.23H1170.37L1163.71 478.16H1156.76L1140.95 450.65L1136.32 478.16H1128.48H1128.47Z" fill="#0E2336"></path>
<path d="M1190.74 478.87C1187.13 478.87 1184.01 478.17 1181.38 476.76C1178.74 475.35 1176.73 473.36 1175.35 470.79C1173.96 468.22 1173.27 465.17 1173.27 461.64C1173.27 456.73 1174.19 452.47 1176.03 448.86C1177.87 445.26 1180.49 442.46 1183.87 440.48C1187.26 438.5 1191.27 437.51 1195.9 437.51C1203.86 437.51 1209.51 440.78 1212.84 447.31L1205.17 450.46C1204.14 448.72 1202.88 447.31 1201.4 446.24C1199.92 445.17 1197.94 444.64 1195.49 444.64C1192.68 444.64 1190.22 445.31 1188.12 446.66C1186.02 448.01 1184.4 449.9 1183.25 452.33C1182.1 454.76 1181.53 457.65 1181.53 460.98C1181.53 463.16 1181.93 465.05 1182.72 466.65C1183.51 468.25 1184.64 469.5 1186.11 470.39C1187.58 471.28 1189.36 471.73 1191.46 471.73C1193.68 471.73 1195.65 471.27 1197.37 470.33C1199.09 469.4 1200.49 468.07 1201.56 466.35C1202.63 464.63 1203.36 462.5 1203.76 459.96L1206.79 462.93H1192.29L1193.36 456.27H1212.61C1212.57 456.67 1212.51 457.11 1212.43 457.61C1212.35 458.11 1212.29 458.59 1212.25 459.07C1211.69 463.27 1210.48 466.85 1208.6 469.8C1206.72 472.75 1204.25 475 1201.2 476.55C1198.15 478.09 1194.66 478.87 1190.74 478.87Z" fill="#0E2336"></path>
<path d="M1225.03 478.16L1248.09 438.23H1256.41L1266.22 478.16H1257.84L1250.71 447.2L1233.95 478.16H1225.04H1225.03ZM1237.75 469.18V462.47H1258.25V469.18H1237.75Z" fill="#0E2336"></path>
<path d="M1271.08 478.16L1277.74 438.23H1286.06L1280.53 471.03H1298.54L1297.35 478.16H1271.08Z" fill="#0E2336"></path>
<path d="M1302.93 478.16L1309.59 438.23H1317.91L1312.38 471.03H1330.39L1329.2 478.16H1302.93Z" fill="#0E2336"></path>
<path d="M1334.78 478.16L1341.44 438.23H1349.76L1343.1 478.16H1334.78Z" fill="#0E2336"></path>
<path d="M1347.98 478.16L1371.04 438.23H1379.36L1389.17 478.16H1380.79L1373.66 447.2L1356.9 478.16H1347.99H1347.98ZM1360.69 469.18V462.47H1381.19V469.18H1360.69Z" fill="#0E2336"></path>
<path d="M1394.03 478.16L1400.69 438.23H1407.64L1423.45 465.68L1428.09 438.23H1435.93L1429.27 478.16H1422.32L1406.51 450.65L1401.88 478.16H1394.04H1394.03Z" fill="#0E2336"></path>
<path d="M1456.48 478.87C1452.76 478.87 1449.57 478.19 1446.91 476.82C1444.26 475.45 1442.22 473.48 1440.82 470.91C1439.41 468.33 1438.71 465.25 1438.71 461.64C1438.71 456.73 1439.63 452.47 1441.47 448.86C1443.31 445.25 1445.94 442.46 1449.34 440.48C1452.75 438.5 1456.79 437.51 1461.46 437.51C1469.38 437.51 1475.01 440.78 1478.34 447.31L1470.67 450.64C1469.68 448.98 1468.45 447.6 1466.99 446.51C1465.52 445.42 1463.52 444.88 1460.99 444.88C1458.22 444.88 1455.8 445.55 1453.74 446.9C1451.68 448.25 1450.09 450.13 1448.96 452.55C1447.83 454.97 1447.27 457.78 1447.27 460.99C1447.27 464.2 1448.14 466.84 1449.88 468.69C1451.62 470.53 1454.12 471.45 1457.37 471.45C1459.91 471.45 1462.01 470.96 1463.67 469.99C1465.33 469.02 1466.82 467.76 1468.13 466.22L1474.55 470.14C1470.47 475.96 1464.45 478.87 1456.48 478.87Z" fill="#0E2336"></path>
<path d="M1478.65 478.16L1485.31 438.23H1513.24L1512.11 445.18H1492.5L1490.9 454.57H1504.8L1503.67 461.28H1489.76L1488.1 471.2H1508.42L1507.29 478.15H1478.65V478.16Z" fill="#0E2336"></path>
<path d="M620.373 283.14C618.213 316.39 627.473 352.37 655.873 372.98C689.863 397.66 738.473 388.38 769.233 364.66L772.833 361.89L769.023 381.79H829.663L872.523 123.52C853.363 124.25 839.003 127.85 823.633 125.91C808.273 123.97 791.913 116.5 773.153 116.69C688.783 117.55 626.663 186.11 620.363 283.14H620.373ZM795.343 172.73L808.363 176.15L789.403 275.24C784.563 300.53 767.333 322.19 743.123 330.97C737.553 332.99 731.803 334.23 725.853 334.23C701.033 334.23 687.363 314.96 687.363 279.98C687.363 245.1 699.713 206.24 728.273 184.29C749.463 168 770.163 166.1 795.333 172.73H795.343Z" fill="#0E2336"></path>
<path d="M303.114 404.27C292.374 416.53 229.184 479.07 228.914 478.85C208.084 457.04 192.644 427.56 201.404 396.94C214.614 350.77 261.784 326.46 291.204 291.85C296.864 285.19 307.604 267.04 303.864 257.46C303.924 257.46 304.154 257.69 304.504 258.05C326.454 280.46 337.214 312.24 333.484 343.41C330.844 366.67 318.514 386.78 303.364 403.97L303.104 404.27H303.114ZM156.604 0.0200195C178.394 67.11 131.914 152.22 83.6338 196.18C46.0738 230.38 4.89382 264.76 0.423825 319.05C-4.30618 376.49 31.3138 429.72 69.3538 469.31C71.1138 471.13 77.5538 478.88 77.5538 478.88C77.5538 478.88 77.4538 471.98 77.9338 468.36C90.2638 375.67 185.234 330.59 229.794 255.69C284.144 164.35 250.184 50.85 156.734 0C156.734 0 156.604 0.0100195 156.604 0.0200195Z" fill="url(#paint0_linear_2_1008)"></path>
<defs>
<linearGradient id="paint0_linear_2_1008" x1="188.134" y1="4.14" x2="157.414" y2="480.3" gradientUnits="userSpaceOnUse">
<stop stop-color="#FFEF8F"></stop>
<stop offset="0.27" stop-color="#FFC885"></stop>
<stop offset="0.85" stop-color="#FE5B04"></stop>
</linearGradient>
</defs>
</svg>